<svg width="106.000000" height="106.000000" viewBox="0 0 106 106" fill="none" xmlns="http://www.w3.org/2000/svg" xmlns:xlink="http://www.w3.org/1999/xlink">
	<desc>
			Created with Pixso.
	</desc>
	<defs>
		<clipPath id="clip23_265">
			<rect id="bi:collection" rx="0.000000" width="47.000000" height="47.000000" transform="translate(29.500000 29.500000)" fill="white" fill-opacity="0"/>
		</clipPath>
	</defs>
	<circle id="Ellipse 5" cx="53.000000" cy="53.000000" r="53.000000" fill="#372839" fill-opacity="1.000000"/>
	<rect id="bi:collection" rx="0.000000" width="47.000000" height="47.000000" transform="translate(29.500000 29.500000)" fill="#FFFFFF" fill-opacity="0"/>
	<g clip-path="url(#clip23_265)">
		<path id="Vector" d="M36.5 39.5C36.1 39.5 35.72 39.34 35.43 39.06C35.15 38.77 35 38.39 35 38C35 37.6 35.15 37.22 35.43 36.93C35.72 36.65 36.1 36.5 36.5 36.5L69.5 36.5C69.89 36.5 70.27 36.65 70.56 36.93C70.84 37.22 71 37.6 71 38C71 38.39 70.84 38.77 70.56 39.06C70.27 39.34 69.89 39.5 69.5 39.5L36.5 39.5ZM42.5 33.5C42.1 33.5 41.72 33.34 41.43 33.06C41.15 32.77 41 32.39 41 32C41 31.6 41.15 31.22 41.43 30.93C41.72 30.65 42.1 30.5 42.5 30.5L63.5 30.5C63.89 30.5 64.27 30.65 64.56 30.93C64.84 31.22 65 31.6 65 32C65 32.39 64.84 32.77 64.56 33.06C64.27 33.34 63.89 33.5 63.5 33.5L42.5 33.5ZM29 68C29 69.19 29.47 70.33 30.31 71.18C31.16 72.02 32.3 72.5 33.5 72.5L72.5 72.5C73.69 72.5 74.83 72.02 75.68 71.18C76.52 70.33 77 69.19 77 68L77 47C77 45.8 76.52 44.66 75.68 43.81C74.83 42.97 73.69 42.5 72.5 42.5L33.5 42.5C32.3 42.5 31.16 42.97 30.31 43.81C29.47 44.66 29 45.8 29 47L29 68ZM33.5 69.5C33.1 69.5 32.72 69.34 32.43 69.06C32.15 68.77 32 68.39 32 68L32 47C32 46.6 32.15 46.22 32.43 45.93C32.72 45.65 33.1 45.5 33.5 45.5L72.5 45.5C72.89 45.5 73.27 45.65 73.56 45.93C73.84 46.22 74 46.6 74 47L74 68C74 68.39 73.84 68.77 73.56 69.06C73.27 69.34 72.89 69.5 72.5 69.5L33.5 69.5Z" fill="#908294" fill-opacity="1.000000" fill-rule="nonzero"/>
	</g>
</svg>
