<svg width="28.000000" height="27.000000" viewBox="0 0 28 27" fill="none" xmlns="http://www.w3.org/2000/svg" xmlns:xlink="http://www.w3.org/1999/xlink">
	<desc>
			Created with Pixso.
	</desc>
	<defs/>
	<path d="M1.48 6.73C1.48 9.02 2.25 10.67 3.79 11.64C5.04 12.44 6.5 12.56 7.26 12.56C7.44 12.56 7.59 12.55 7.69 12.55C7.69 12.55 7.45 14.09 8.61 15.61L8.56 15.61C6.55 15.61 0 16.02 0 21.33C0 26.72 6.01 27 7.22 27C7.32 27 7.37 26.99 7.37 26.99C7.39 26.99 7.47 27 7.62 27C8.39 27 10.4 26.9 12.26 26.01C14.67 24.86 15.89 22.85 15.89 20.05C15.89 17.34 14.03 15.73 12.67 14.55C11.84 13.83 11.12 13.21 11.12 12.61C11.12 12 11.64 11.54 12.31 10.95C13.38 10.01 14.39 8.66 14.39 6.12C14.39 3.88 14.1 2.38 12.28 1.43C12.47 1.33 13.14 1.27 13.47 1.22C14.46 1.09 15.9 0.94 15.9 0.15L15.9 0L8.73 0C8.65 0 1.48 0.26 1.48 6.73ZM13.05 20.56C13.19 22.71 11.31 24.3 8.49 24.5C5.63 24.71 3.28 23.44 3.14 21.29C3.08 20.25 3.54 19.24 4.44 18.43C5.36 17.61 6.62 17.11 8 17.01C8.16 17 8.32 16.99 8.48 16.99C11.13 16.99 12.92 18.52 13.05 20.56ZM11.18 5.25C11.88 7.69 10.82 10.23 9.13 10.7C8.93 10.75 8.73 10.78 8.53 10.78C6.98 10.78 5.44 9.24 4.87 7.11C4.55 5.92 4.58 4.87 4.94 3.87C5.3 2.88 5.95 2.22 6.76 1.99C6.95 1.94 7.15 1.91 7.36 1.91C9.23 1.91 10.43 2.67 11.18 5.25ZM23.32 10.43L23.32 5.82L20.2 5.82L20.2 10.43L15.52 10.43L15.52 13.5L20.2 13.5L20.2 18.1L23.32 18.1L23.32 13.5L28 13.5L28 10.43L23.32 10.43Z" fill="#D53D5C" fill-opacity="1.000000" fill-rule="nonzero"/>
</svg>
