<svg width="106.000000" height="106.000000" viewBox="0 0 106 106" fill="none" xmlns="http://www.w3.org/2000/svg" xmlns:xlink="http://www.w3.org/1999/xlink">
	<desc>
			Created with Pixso.
	</desc>
	<defs>
		<clipPath id="clip23_258">
			<rect id="fluent:collections-24-regular" rx="0.000000" width="47.000000" height="47.000000" transform="translate(29.500000 29.500000)" fill="white" fill-opacity="0"/>
		</clipPath>
	</defs>
	<circle id="Ellipse 6" cx="53.000000" cy="53.000000" r="53.000000" fill="#372839" fill-opacity="1.000000"/>
	<rect id="fluent:collections-24-regular" rx="0.000000" width="47.000000" height="47.000000" transform="translate(29.500000 29.500000)" fill="#FFFFFF" fill-opacity="0"/>
	<g clip-path="url(#clip23_258)">
		<path id="Vector" d="M51.13 45L51.49 44.99L66.49 44.99C68.15 44.99 69.75 45.63 70.96 46.77C72.17 47.91 72.89 49.47 72.98 51.12L72.99 51.49L72.99 66.49C72.99 68.15 72.36 69.75 71.22 70.96C70.08 72.16 68.52 72.89 66.86 72.98L66.49 72.99L51.49 72.99C49.83 72.99 48.24 72.36 47.03 71.22C45.82 70.08 45.1 68.52 45 66.86L44.99 66.49L44.99 51.49C44.99 49.83 45.63 48.24 46.77 47.03C47.91 45.82 49.47 45.1 51.13 45L51.13 45ZM66.49 47.99L51.49 47.99C50.62 47.99 49.77 48.32 49.12 48.92C48.48 49.51 48.08 50.33 48.01 51.21L47.99 51.49L47.99 66.49C47.99 67.37 48.33 68.22 48.92 68.86C49.52 69.51 50.33 69.91 51.21 69.98L51.49 69.99L66.49 69.99C67.37 69.99 68.22 69.66 68.87 69.07C69.51 68.47 69.91 67.65 69.98 66.78L69.99 66.49L69.99 51.49C69.99 50.56 69.63 49.67 68.97 49.02C68.31 48.36 67.42 47.99 66.49 47.99ZM58.99 50.99C59.39 50.99 59.77 51.15 60.06 51.43C60.34 51.72 60.49 52.1 60.49 52.49L60.49 57.49L65.49 57.49C65.89 57.49 66.27 57.65 66.56 57.93C66.84 58.21 66.99 58.59 66.99 58.99C66.99 59.39 66.84 59.77 66.56 60.05C66.27 60.33 65.89 60.49 65.49 60.49L60.49 60.49L60.49 65.49C60.49 65.89 60.34 66.27 60.06 66.56C59.77 66.84 59.39 66.99 58.99 66.99C58.6 66.99 58.22 66.84 57.93 66.56C57.65 66.27 57.49 65.89 57.49 65.49L57.49 60.49L52.49 60.49C52.1 60.49 51.72 60.33 51.43 60.05C51.15 59.77 50.99 59.39 50.99 58.99C50.99 58.59 51.15 58.21 51.43 57.93C51.72 57.65 52.1 57.49 52.49 57.49L57.49 57.49L57.49 52.49C57.49 52.1 57.65 51.72 57.93 51.43C58.22 51.15 58.6 50.99 58.99 50.99ZM60.16 37.46L60.26 37.81L61.65 42.99L58.54 42.99L57.37 38.59C57.25 38.15 57.04 37.73 56.76 37.37C56.48 37 56.13 36.69 55.74 36.46C55.34 36.23 54.9 36.09 54.44 36.03C53.99 35.97 53.52 36 53.08 36.11L38.59 40C37.75 40.23 37.02 40.76 36.54 41.5C36.07 42.24 35.9 43.13 36.05 43.99L36.11 44.28L40 58.77C40.18 59.45 40.56 60.06 41.1 60.52C41.63 60.98 42.29 61.27 42.99 61.35L42.99 64.36C41.69 64.28 40.45 63.82 39.41 63.02C38.38 62.23 37.61 61.14 37.2 59.9L37.1 59.55L33.22 45.06C32.79 43.46 32.99 41.75 33.78 40.29C34.57 38.83 35.88 37.73 37.46 37.21L37.81 37.1L52.3 33.22C53.91 32.79 55.61 32.99 57.07 33.78C58.53 34.57 59.64 35.88 60.16 37.46L60.16 37.46Z" fill="#908294" fill-opacity="1.000000" fill-rule="nonzero"/>
	</g>
</svg>
