<svg width="40.000000" height="40.000000" viewBox="0 0 40 40" fill="none" xmlns="http://www.w3.org/2000/svg" xmlns:xlink="http://www.w3.org/1999/xlink">
	<desc>
			Created with Pixso.
	</desc>
	<defs>
		<clipPath id="clip29_651">
			<rect rx="0.000000" width="39.000000" height="39.000000" transform="translate(0.500000 0.500000)" fill="white" fill-opacity="0"/>
		</clipPath>
	</defs>
	<rect rx="0.000000" width="39.000000" height="39.000000" transform="translate(0.500000 0.500000)" fill="#FFFFFF" fill-opacity="0"/>
	<g clip-path="url(#clip29_651)">
		<path d="M33.38 13.32C33.41 13.62 33.41 13.9 33.41 14.19C33.41 23.07 26.65 33.3 14.31 33.3C10.5 33.3 6.97 32.19 4 30.28C4.54 30.34 5.06 30.37 5.62 30.37C8.64 30.37 11.57 29.36 13.95 27.5C12.55 27.47 11.19 27.01 10.07 26.17C8.94 25.34 8.1 24.17 7.67 22.84C8.09 22.9 8.51 22.94 8.94 22.94C9.54 22.94 10.15 22.86 10.71 22.72C9.19 22.41 7.82 21.59 6.84 20.38C5.86 19.18 5.32 17.68 5.33 16.13L5.33 16.04C6.22 16.54 7.26 16.85 8.36 16.9C7.44 16.28 6.68 15.45 6.16 14.48C5.64 13.5 5.37 12.41 5.37 11.31C5.37 10.06 5.7 8.92 6.28 7.92C7.97 10 10.07 11.69 12.46 12.9C14.84 14.11 17.45 14.81 20.12 14.94C20.02 14.44 19.96 13.93 19.96 13.41C19.96 12.52 20.13 11.65 20.47 10.84C20.8 10.02 21.3 9.28 21.92 8.66C22.55 8.04 23.29 7.54 24.1 7.2C24.92 6.87 25.79 6.69 26.67 6.69C28.6 6.69 30.35 7.5 31.58 8.81C33.08 8.52 34.52 7.97 35.84 7.19C35.33 8.74 34.28 10.06 32.88 10.89C34.22 10.74 35.52 10.39 36.75 9.85C35.83 11.19 34.69 12.36 33.38 13.32Z" fill="#D53D5C" fill-opacity="1.000000" fill-rule="nonzero"/>
	</g>
</svg>
