<svg width="45.000000" height="45.000000" viewBox="0 0 45 45" fill="none" xmlns="http://www.w3.org/2000/svg" xmlns:xlink="http://www.w3.org/1999/xlink">
	<desc>
			Created with Pixso.
	</desc>
	<defs>
		<clipPath id="clip29_649">
			<rect rx="0.000000" width="44.000000" height="44.000000" transform="translate(0.500000 0.500000)" fill="white" fill-opacity="0"/>
		</clipPath>
	</defs>
	<rect rx="0.000000" width="44.000000" height="44.000000" transform="translate(0.500000 0.500000)" fill="#FFFFFF" fill-opacity="0"/>
	<g clip-path="url(#clip29_649)">
		<path d="M40.76 12.13C40.54 11.33 40.13 10.61 39.55 10.03C38.97 9.45 38.25 9.03 37.45 8.81C34.52 8.01 22.77 8 22.77 8C22.77 8 11.03 7.98 8.09 8.75C7.3 8.98 6.58 9.4 6 9.99C5.42 10.57 5 11.29 4.78 12.09C4 15.02 4 21.11 4 21.11C4 21.11 3.99 27.23 4.76 30.14C5.19 31.75 6.45 33.02 8.06 33.45C11.03 34.25 22.74 34.27 22.74 34.27C22.74 34.27 34.49 34.28 37.43 33.51C38.22 33.3 38.94 32.88 39.52 32.3C40.1 31.72 40.52 31 40.74 30.21C41.52 27.27 41.52 21.18 41.52 21.18C41.52 21.18 41.56 15.06 40.76 12.13ZM19.01 26.75L19.02 15.5L28.79 21.14L19.01 26.75Z" fill="#F7D7FF" fill-opacity="1.000000" fill-rule="nonzero"/>
	</g>
</svg>
