<svg width="28.000000" height="25.689941" viewBox="0 0 28 25.6899" fill="none" xmlns="http://www.w3.org/2000/svg" xmlns:xlink="http://www.w3.org/1999/xlink">
	<desc>
			Created with Pixso.
	</desc>
	<defs/>
	<path d="M20.29 0C17.86 0 15.52 1.13 14 2.92C12.47 1.13 10.13 0 7.7 0C3.38 0 0 3.38 0 7.69C0 12.99 4.75 17.3 11.97 23.85L14 25.68L16.03 23.84C23.24 17.3 28 12.99 28 7.69C28 3.38 24.61 0 20.29 0ZM14.14 21.77L14 21.91L13.86 21.77C7.19 15.73 2.8 11.74 2.8 7.69C2.8 4.9 4.89 2.8 7.7 2.8C9.85 2.8 11.95 4.18 12.69 6.1L15.31 6.1C16.04 4.18 18.14 2.8 20.29 2.8C23.1 2.8 25.2 4.9 25.2 7.69C25.2 11.74 20.8 15.73 14.14 21.77Z" fill="#76607A" fill-opacity="1.000000" fill-rule="nonzero"/>
</svg>
