<svg width="54.000000" height="54.000000" viewBox="0 0 54 54" fill="none" xmlns="http://www.w3.org/2000/svg" xmlns:xlink="http://www.w3.org/1999/xlink">
	<desc>
			Created with Pixso.
	</desc>
	<defs/>
	<path id="Vector" d="M27 0C34.16 0 41.02 2.84 46.09 7.9C51.15 12.97 54 19.83 54 27C54 34.16 51.15 41.02 46.09 46.09C41.02 51.15 34.16 54 27 54C19.83 54 12.97 51.15 7.9 46.09C2.84 41.02 0 34.16 0 27C0 19.83 2.84 12.97 7.9 7.9C12.97 2.84 19.83 0 27 0ZM15.18 25.31C14.74 25.31 14.31 25.49 13.99 25.8C13.67 26.12 13.5 26.55 13.5 27C13.5 27.44 13.67 27.87 13.99 28.19C14.31 28.5 14.74 28.68 15.18 28.68L34.73 28.68L27.49 35.93C27.17 36.24 26.99 36.67 26.99 37.12C26.99 37.57 27.17 38 27.49 38.31C27.8 38.63 28.23 38.81 28.68 38.81C29.13 38.81 29.56 38.63 29.88 38.31L40 28.19C40.16 28.03 40.28 27.85 40.37 27.64C40.45 27.44 40.5 27.22 40.5 27C40.5 26.77 40.45 26.55 40.37 26.35C40.28 26.14 40.16 25.96 40 25.8L29.88 15.68C29.56 15.36 29.13 15.18 28.68 15.18C28.23 15.18 27.8 15.36 27.49 15.68C27.17 15.99 26.99 16.42 26.99 16.87C26.99 17.32 27.17 17.75 27.49 18.06L34.73 25.31L15.18 25.31Z" fill="#F5FBF2" fill-opacity="1.000000" fill-rule="nonzero"/>
</svg>
