<svg width="54.000000" height="54.000000" viewBox="0 0 54 54" fill="none" xmlns="http://www.w3.org/2000/svg" xmlns:xlink="http://www.w3.org/1999/xlink">
	<desc>
			Created with Pixso.
	</desc>
	<defs>
		<clipPath id="clip17_6">
			<rect id="bi:arrow-down-circle-fill" rx="0.000000" width="53.000000" height="53.000004" transform="translate(54.500000 0.500000) rotate(89.999992)" fill="white" fill-opacity="0"/>
		</clipPath>
	</defs>
	<g opacity="0.250000">
		<rect id="bi:arrow-down-circle-fill" rx="0.000000" width="53.000000" height="53.000004" transform="translate(54.500000 0.500000) rotate(89.999992)" fill="#FFFFFF" fill-opacity="0"/>
		<g clip-path="url(#clip17_6)">
			<path id="Vector" d="M27 54C19.83 54 12.97 51.15 7.9 46.09C2.84 41.02 0 34.16 0 27C0 19.83 2.84 12.97 7.9 7.9C12.97 2.84 19.83 0 27 0C34.16 0 41.02 2.84 46.09 7.9C51.15 12.97 54 19.83 54 27C54 34.16 51.15 41.02 46.09 46.09C41.02 51.15 34.16 54 27 54ZM38.81 28.68C39.25 28.68 39.68 28.5 40 28.19C40.32 27.87 40.5 27.44 40.5 27C40.5 26.55 40.32 26.12 40 25.8C39.68 25.49 39.25 25.31 38.81 25.31L19.26 25.31L26.5 18.06C26.82 17.75 27 17.32 27 16.87C27 16.42 26.82 15.99 26.5 15.68C26.19 15.36 25.76 15.18 25.31 15.18C24.86 15.18 24.43 15.36 24.11 15.68L13.99 25.8C13.83 25.96 13.71 26.14 13.62 26.35C13.54 26.55 13.49 26.77 13.49 27C13.49 27.22 13.54 27.44 13.62 27.64C13.71 27.85 13.83 28.03 13.99 28.19L24.11 38.31C24.43 38.63 24.86 38.81 25.31 38.81C25.76 38.81 26.19 38.63 26.5 38.31C26.82 38 27 37.57 27 37.12C27 36.67 26.82 36.24 26.5 35.93L19.26 28.68L38.81 28.68Z" fill="#F5FBF2" fill-opacity="1.000000" fill-rule="nonzero"/>
		</g>
	</g>
</svg>
