<svg width="106.000000" height="106.000000" viewBox="0 0 106 106" fill="none" xmlns="http://www.w3.org/2000/svg" xmlns:xlink="http://www.w3.org/1999/xlink">
	<desc>
			Created with Pixso.
	</desc>
	<defs>
		<clipPath id="clip23_272">
			<rect id="clarity:wallet-line" rx="0.000000" width="47.000000" height="47.000000" transform="translate(29.500000 29.500000)" fill="white" fill-opacity="0"/>
		</clipPath>
	</defs>
	<circle id="Ellipse 4" cx="53.000000" cy="53.000000" r="53.000000" fill="#372839" fill-opacity="1.000000"/>
	<rect id="clarity:wallet-line" rx="0.000000" width="47.000000" height="47.000000" transform="translate(29.500000 29.500000)" fill="#FFFFFF" fill-opacity="0"/>
	<g clip-path="url(#clip23_272)">
		<path id="Vector" d="M71.66 48.99L70.33 48.99L70.33 40.99C70.33 40.64 70.19 40.3 69.94 40.05C69.69 39.8 69.35 39.66 69 39.66L37 39.66C36.68 39.67 36.37 39.56 36.13 39.36C35.88 39.16 35.72 38.88 35.66 38.57L35.66 38.09C35.72 37.78 35.88 37.5 36.13 37.3C36.37 37.1 36.68 36.99 37 36.99L68.44 36.99C68.79 36.99 69.13 36.85 69.38 36.6C69.63 36.35 69.77 36.02 69.77 35.66C69.77 35.31 69.63 34.97 69.38 34.72C69.13 34.47 68.79 34.33 68.44 34.33L37 34.33C35.93 34.33 34.92 34.75 34.17 35.5C33.42 36.25 33 37.27 33 38.33C32.99 38.49 32.99 38.65 33 38.81L33 66.23C33 66.95 33.15 67.66 33.43 68.32C33.71 68.99 34.11 69.58 34.62 70.09C35.14 70.59 35.74 70.99 36.41 71.26C37.07 71.53 37.78 71.67 38.5 71.66L69 71.66C69.35 71.66 69.69 71.52 69.94 71.27C70.19 71.02 70.33 70.68 70.33 70.33L70.33 62.33L71.66 62.33C72.02 62.33 72.35 62.19 72.6 61.94C72.85 61.69 73 61.35 73 60.99L73 50.33C73 49.97 72.85 49.64 72.6 49.39C72.35 49.14 72.02 48.99 71.66 48.99ZM67.66 68.99L38.5 68.99C37.76 69 37.05 68.72 36.51 68.2C35.98 67.68 35.68 66.98 35.66 66.23L35.66 42.17C36.09 42.29 36.55 42.35 37 42.33L67.66 42.33L67.66 48.99L58.33 48.99C56.56 48.99 54.86 49.7 53.61 50.95C52.36 52.2 51.66 53.89 51.66 55.66C51.66 57.43 52.36 59.13 53.61 60.38C54.86 61.63 56.56 62.33 58.33 62.33L67.66 62.33L67.66 68.99ZM70.33 59.66L58.33 59.66C57.27 59.66 56.25 59.24 55.5 58.49C54.75 57.74 54.33 56.72 54.33 55.66C54.33 54.6 54.75 53.58 55.5 52.83C56.25 52.08 57.27 51.66 58.33 51.66L70.33 51.66L70.33 59.66Z" fill="#908294" fill-opacity="1.000000" fill-rule="nonzero"/>
		<path id="Vector" d="M61.67 55.66C61.67 56.77 60.78 57.66 59.67 57.66C58.57 57.66 57.67 56.77 57.67 55.66C57.67 54.56 58.57 53.66 59.67 53.66C60.78 53.66 61.67 54.56 61.67 55.66Z" fill="#908294" fill-opacity="1.000000" fill-rule="evenodd"/>
	</g>
</svg>
